<svg version="1.1" id="Layer_1" xmlns="http://www.w3.org/2000/svg" xmlns:xlink="http://www.w3.org/1999/xlink" x="0px" y="0px"
	 width="100%" viewBox="0 0 1280 720" enable-background="new 0 0 1280 720" xml:space="preserve">
<path fill="#FFFFFF" opacity="1.000000" stroke="none" 
	d="
M820.000000,721.000000 
	C546.700745,721.000000 273.901459,721.000000 1.051104,721.000000 
	C1.051104,481.064056 1.051104,241.128082 1.051104,1.096058 
	C427.549347,1.096058 854.098694,1.096058 1280.823975,1.096058 
	C1280.823975,240.999893 1280.823975,480.999939 1280.823975,721.000000 
	C1127.461304,721.000000 973.980652,721.000000 820.000000,721.000000 
M276.923706,490.454834 
	C268.399506,501.346985 267.745728,515.582153 275.257843,526.724915 
	C283.121368,538.388916 297.298279,543.725830 310.163788,539.865295 
	C323.359894,535.905518 332.784210,523.717041 333.001892,510.328674 
	C333.260986,494.392334 324.508667,484.413330 304.186340,477.690582 
	C306.703186,455.640381 309.226501,433.533569 311.737823,411.531738 
	C339.198242,407.549744 354.810089,391.944153 359.511353,364.837311 
	C382.313599,372.621216 405.063873,380.387390 427.758575,388.134583 
	C427.251526,390.399384 426.782471,392.158173 426.469788,393.944366 
	C424.004730,408.027039 432.941467,423.075806 446.692383,428.046234 
	C461.639374,433.449005 477.300781,427.496185 485.099152,413.448059 
	C492.369385,400.351318 489.232117,383.900909 477.705170,374.677338 
	C463.143036,363.025177 445.256226,364.889038 433.024780,379.334015 
	C431.532257,381.096649 430.398071,382.729340 427.319427,381.650970 
	C405.522308,374.016083 383.628967,366.656036 361.815918,359.065826 
	C360.605194,358.644562 359.174927,357.069489 358.964172,355.839966 
	C357.191406,345.496521 353.309357,336.188263 346.214386,328.754517 
	C356.842529,312.191986 367.233612,295.998840 377.578003,279.878479 
	C397.054016,288.452759 412.586761,285.068787 421.966278,270.520874 
	C430.201385,257.747894 428.154053,240.929581 417.137299,230.851852 
	C405.560059,220.261429 388.557983,219.293381 376.918488,228.509247 
	C370.565826,233.539139 366.276581,239.794510 364.666473,247.852005 
	C362.506195,258.662750 366.337463,267.685333 373.036316,275.731537 
	C362.519104,292.106445 352.218536,308.144104 342.034149,324.000854 
	C319.495636,307.658600 297.750946,307.970093 276.184723,324.920380 
	C259.382538,307.573700 242.709549,290.360413 226.092484,273.204834 
	C236.638611,255.940994 234.763062,239.886185 221.104965,228.815826 
	C209.455002,219.373123 192.133301,220.156509 180.852631,230.636276 
	C169.722534,240.976166 167.839462,258.360992 176.635605,270.708160 
	C181.241409,277.173370 187.401169,281.488434 195.227783,283.269012 
	C204.899490,285.469391 213.575607,282.971741 221.650482,277.342804 
	C238.589676,294.846558 255.341766,312.156982 271.993683,329.363892 
	C256.429901,349.861481 256.175873,370.493561 269.913208,391.573090 
	C241.420959,398.056732 213.289764,404.458191 185.070312,410.879761 
	C184.288101,408.565369 183.713135,406.845276 183.125824,405.129364 
	C177.914673,389.903717 160.888596,380.925385 145.389893,385.228149 
	C129.660095,389.595032 119.550690,405.695557 122.691811,421.377686 
	C125.633621,436.064789 138.391724,446.875916 152.932053,447.003113 
	C168.462158,447.138916 181.335510,436.709839 184.465942,421.132874 
	C185.016190,418.394867 185.728836,416.830475 188.683731,416.169098 
	C216.271118,409.994659 243.815674,403.627960 271.421692,397.539337 
	C273.290039,397.127289 276.049042,397.918488 277.551117,399.165344 
	C284.499847,404.933411 292.212891,408.834564 301.129639,410.357239 
	C302.566803,410.602661 303.961029,411.099243 305.576965,411.534058 
	C303.042755,433.909851 300.536987,456.034790 298.024506,478.218719 
	C289.476685,479.696594 282.571503,483.330231 276.923706,490.454834 
M783.972351,327.547333 
	C778.580872,322.989319 773.711243,317.533295 767.700684,314.040863 
	C749.302490,303.350616 721.966125,309.424957 709.291443,326.453369 
	C699.914490,339.051361 697.486023,353.363464 700.026733,368.529144 
	C702.949768,385.977539 711.979065,399.244049 729.110168,405.147217 
	C746.346497,411.086639 763.005005,409.373688 777.261597,397.010559 
	C795.650452,381.063843 798.767395,349.158875 783.972351,327.547333 
M585.644653,337.162964 
	C590.893494,337.162964 596.142334,337.162964 601.672791,337.162964 
	C600.103882,324.029419 593.498779,315.717957 581.624878,311.755310 
	C569.183228,307.603210 556.683838,307.893677 544.484314,312.556549 
	C529.769226,318.180878 523.224792,334.364319 529.650269,348.743744 
	C533.284119,356.875824 540.536438,360.586395 548.521484,362.959412 
	C557.425903,365.605652 566.501953,367.680603 575.381653,370.401337 
	C579.965942,371.805969 583.254395,374.923828 582.863342,380.313904 
	C582.482544,385.562531 578.959351,388.585632 574.349854,389.547180 
	C561.459900,392.236084 549.394531,390.873596 545.896851,376.065765 
	C538.831116,376.065765 531.753601,376.065765 524.515564,376.065765 
	C524.994446,388.330750 530.310730,397.536072 541.098450,402.650665 
	C556.576233,409.988922 572.666565,410.562347 588.346985,403.418701 
	C599.467163,398.352631 605.070068,388.990601 604.872986,376.643341 
	C604.672302,364.067474 597.600220,356.280273 586.330688,352.126251 
	C580.437378,349.953888 574.197693,348.735992 568.155396,346.948517 
	C563.087891,345.449371 557.789185,344.329132 553.119812,341.989471 
	C547.452271,339.149628 547.563232,332.073334 552.781067,328.561218 
	C562.627625,321.933563 576.225159,325.992828 580.594055,337.177582 
	C581.932800,337.177582 583.412537,337.177582 585.644653,337.162964 
M957.043152,338.558411 
	C965.752197,329.494080 974.461182,320.429749 984.047363,310.452423 
	C975.856323,310.452423 968.915588,310.211517 962.008240,310.586609 
	C959.674316,310.713318 956.829834,311.823364 955.234497,313.468781 
	C945.502502,323.507019 936.038269,333.806122 926.559692,344.087372 
	C925.481689,345.256744 924.871399,346.857300 924.044189,348.257935 
	C923.580444,347.851990 923.116699,347.446075 922.652954,347.040131 
	C922.652954,335.009979 922.652954,322.979797 922.652954,310.731812 
	C915.497375,310.731812 908.421875,310.731812 901.430176,310.731812 
	C901.430176,342.553680 901.430176,374.087128 901.430176,405.580566 
	C908.736023,405.580566 915.656189,405.580566 922.963440,405.580566 
	C922.963440,397.335144 923.625732,389.303070 922.782532,381.432281 
	C921.887329,373.075531 925.286743,367.636719 931.892944,363.175415 
	C940.699097,376.267517 949.472961,389.382721 958.360779,402.420197 
	C959.302246,403.801147 960.875000,405.653564 962.219666,405.708771 
	C969.907532,406.024384 977.614929,405.862030 986.186523,405.862030 
	C972.789978,386.299774 959.981262,367.595978 947.198425,348.929871 
	C950.597656,345.344879 953.573853,342.206024 957.043152,338.558411 
M1070.391357,352.784698 
	C1076.197266,332.504547 1066.293457,315.119629 1046.141846,311.458618 
	C1038.850708,310.134003 1031.212036,310.600555 1023.728455,310.490082 
	C1014.273743,310.350433 1004.815308,310.456360 995.444824,310.456360 
	C995.444824,342.554077 995.444824,374.100708 995.444824,405.733887 
	C1002.818237,405.733887 1009.794373,405.733887 1017.151978,405.733887 
	C1017.151978,394.826721 1017.151978,384.045776 1017.151978,372.868378 
	C1025.174072,372.868378 1032.826660,373.061707 1040.465942,372.826050 
	C1054.183960,372.402771 1064.963989,367.220001 1070.391357,352.784698 
M847.521484,308.993225 
	C842.294128,309.842896 836.777161,309.899506 831.891296,311.684052 
	C813.916504,318.249207 804.468994,331.871216 801.838806,350.454132 
	C799.417786,367.558533 803.185791,383.076324 815.771912,395.342072 
	C829.829346,409.041687 846.940735,410.837891 864.957703,405.320221 
	C878.867126,401.060516 889.758789,385.588196 888.845886,372.427704 
	C885.398621,372.427704 881.924561,372.427704 878.450500,372.427704 
	C874.998474,372.427704 871.546509,372.427704 868.409119,372.427704 
	C867.937622,373.207672 867.673950,373.469574 867.611267,373.773041 
	C865.718140,382.930878 860.337952,388.512543 850.939575,389.771606 
	C841.650391,391.016113 832.923950,386.769836 828.418945,378.238129 
	C821.784729,365.673889 821.876099,352.638184 827.566040,339.814484 
	C831.683655,330.534454 839.686951,326.796173 849.450928,327.264954 
	C858.885559,327.717926 864.633301,333.153870 867.100708,342.180450 
	C867.166565,342.421417 867.540222,342.578247 867.400513,342.459229 
	C874.655579,342.459229 881.536438,342.459229 889.660156,342.459229 
	C887.230713,336.526703 885.738464,331.005035 882.895081,326.299896 
	C875.151184,313.485626 862.706482,309.292328 847.521484,308.993225 
M1098.678833,310.459778 
	C1091.468994,310.459778 1084.259033,310.459778 1076.403931,310.459778 
	C1086.696655,329.314850 1096.641113,347.283142 1106.272339,365.417755 
	C1107.893188,368.469604 1108.808472,372.217346 1108.930664,375.682983 
	C1109.280029,385.594299 1109.053589,395.525940 1109.053589,405.493713 
	C1116.684937,405.493713 1123.724731,405.493713 1130.948730,405.493713 
	C1130.948730,394.638611 1130.857178,384.157562 1131.022827,373.680542 
	C1131.057617,371.472534 1131.620117,369.059326 1132.649170,367.116547 
	C1137.769287,357.449615 1143.137695,347.914398 1148.397217,338.321014 
	C1153.374146,329.243195 1158.324585,320.150787 1163.621460,310.451660 
	C1156.123047,310.451660 1149.494019,310.284882 1142.886963,310.590637 
	C1141.545044,310.652710 1139.756104,312.225616 1139.072632,313.561951 
	C1134.020142,323.440735 1129.153931,333.415894 1124.325562,343.407349 
	C1122.947876,346.258209 1121.888184,349.262787 1120.371216,352.955414 
	C1117.325562,345.857941 1114.935913,339.509491 1111.926270,333.470001 
	C1108.045166,325.681763 1103.668091,318.140808 1098.678833,310.459778 
M612.684448,311.266388 
	C612.684448,317.162811 612.684448,323.059235 612.684448,329.235840 
	C622.285339,329.235840 631.408081,329.235840 641.077148,329.235840 
	C641.077148,354.888580 641.077148,380.249451 641.077148,405.604126 
	C648.547180,405.604126 655.462341,405.604126 662.991089,405.604126 
	C662.991089,380.020966 662.991089,354.699402 662.991089,329.009399 
	C672.687195,329.009399 681.768066,329.009399 690.844727,329.009399 
	C690.844727,322.702911 690.844727,316.778839 690.844727,310.654633 
	C664.828857,310.654633 639.070801,310.654633 612.684448,311.266388 
z"/>
<path fill="#357C69" opacity="1.000000" stroke="none" 
	d="
M277.152466,490.177582 
	C282.571503,483.330231 289.476685,479.696594 298.024506,478.218719 
	C300.536987,456.034790 303.042755,433.909851 305.576965,411.534058 
	C303.961029,411.099243 302.566803,410.602661 301.129639,410.357239 
	C292.212891,408.834564 284.499847,404.933411 277.551117,399.165344 
	C276.049042,397.918488 273.290039,397.127289 271.421692,397.539337 
	C243.815674,403.627960 216.271118,409.994659 188.683731,416.169098 
	C185.728836,416.830475 185.016190,418.394867 184.465942,421.132874 
	C181.335510,436.709839 168.462158,447.138916 152.932053,447.003113 
	C138.391724,446.875916 125.633621,436.064789 122.691811,421.377686 
	C119.550690,405.695557 129.660095,389.595032 145.389893,385.228149 
	C160.888596,380.925385 177.914673,389.903717 183.125824,405.129364 
	C183.713135,406.845276 184.288101,408.565369 185.070312,410.879761 
	C213.289764,404.458191 241.420959,398.056732 269.913208,391.573090 
	C256.175873,370.493561 256.429901,349.861481 271.993683,329.363892 
	C255.341766,312.156982 238.589676,294.846558 221.650482,277.342804 
	C213.575607,282.971741 204.899490,285.469391 195.227783,283.269012 
	C187.401169,281.488434 181.241409,277.173370 176.635605,270.708160 
	C167.839462,258.360992 169.722534,240.976166 180.852631,230.636276 
	C192.133301,220.156509 209.455002,219.373123 221.104965,228.815826 
	C234.763062,239.886185 236.638611,255.940994 226.092484,273.204834 
	C242.709549,290.360413 259.382538,307.573700 276.184723,324.920380 
	C297.750946,307.970093 319.495636,307.658600 342.034149,324.000854 
	C352.218536,308.144104 362.519104,292.106445 373.036316,275.731537 
	C366.337463,267.685333 362.506195,258.662750 364.666473,247.852005 
	C366.276581,239.794510 370.565826,233.539139 376.918488,228.509247 
	C388.557983,219.293381 405.560059,220.261429 417.137299,230.851852 
	C428.154053,240.929581 430.201385,257.747894 421.966278,270.520874 
	C412.586761,285.068787 397.054016,288.452759 377.578003,279.878479 
	C367.233612,295.998840 356.842529,312.191986 346.214386,328.754517 
	C353.309357,336.188263 357.191406,345.496521 358.964172,355.839966 
	C359.174927,357.069489 360.605194,358.644562 361.815918,359.065826 
	C383.628967,366.656036 405.522308,374.016083 427.319427,381.650970 
	C430.398071,382.729340 431.532257,381.096649 433.024780,379.334015 
	C445.256226,364.889038 463.143036,363.025177 477.705170,374.677338 
	C489.232117,383.900909 492.369385,400.351318 485.099152,413.448059 
	C477.300781,427.496185 461.639374,433.449005 446.692383,428.046234 
	C432.941467,423.075806 424.004730,408.027039 426.469788,393.944366 
	C426.782471,392.158173 427.251526,390.399384 427.758575,388.134583 
	C405.063873,380.387390 382.313599,372.621216 359.511353,364.837311 
	C354.810089,391.944153 339.198242,407.549744 311.737823,411.531738 
	C309.226501,433.533569 306.703186,455.640381 304.186340,477.690582 
	C324.508667,484.413330 333.260986,494.392334 333.001892,510.328674 
	C332.784210,523.717041 323.359894,535.905518 310.163788,539.865295 
	C297.298279,543.725830 283.121368,538.388916 275.257843,526.724915 
	C267.745728,515.582153 268.399506,501.346985 277.152466,490.177582 
z"/>
<path fill="#032B1E" opacity="1.000000" stroke="none" 
	d="
M784.179749,327.840851 
	C798.767395,349.158875 795.650452,381.063843 777.261597,397.010559 
	C763.005005,409.373688 746.346497,411.086639 729.110168,405.147217 
	C711.979065,399.244049 702.949768,385.977539 700.026733,368.529144 
	C697.486023,353.363464 699.914490,339.051361 709.291443,326.453369 
	C721.966125,309.424957 749.302490,303.350616 767.700684,314.040863 
	C773.711243,317.533295 778.580872,322.989319 784.179749,327.840851 
M762.400452,333.096588 
	C749.715149,322.178650 732.173462,325.396790 725.361633,340.340698 
	C719.942383,352.229523 720.015991,364.619263 725.244080,376.586823 
	C728.733704,384.574768 735.202332,389.255371 744.117188,389.988068 
	C752.895264,390.709564 760.174683,387.865540 765.200439,380.420746 
	C773.869446,367.579224 772.718811,345.613831 762.400452,333.096588 
z"/>
<path fill="#032B1F" opacity="1.000000" stroke="none" 
	d="
M585.268433,337.170288 
	C583.412537,337.177582 581.932800,337.177582 580.594055,337.177582 
	C576.225159,325.992828 562.627625,321.933563 552.781067,328.561218 
	C547.563232,332.073334 547.452271,339.149628 553.119812,341.989471 
	C557.789185,344.329132 563.087891,345.449371 568.155396,346.948517 
	C574.197693,348.735992 580.437378,349.953888 586.330688,352.126251 
	C597.600220,356.280273 604.672302,364.067474 604.872986,376.643341 
	C605.070068,388.990601 599.467163,398.352631 588.346985,403.418701 
	C572.666565,410.562347 556.576233,409.988922 541.098450,402.650665 
	C530.310730,397.536072 524.994446,388.330750 524.515564,376.065765 
	C531.753601,376.065765 538.831116,376.065765 545.896851,376.065765 
	C549.394531,390.873596 561.459900,392.236084 574.349854,389.547180 
	C578.959351,388.585632 582.482544,385.562531 582.863342,380.313904 
	C583.254395,374.923828 579.965942,371.805969 575.381653,370.401337 
	C566.501953,367.680603 557.425903,365.605652 548.521484,362.959412 
	C540.536438,360.586395 533.284119,356.875824 529.650269,348.743744 
	C523.224792,334.364319 529.769226,318.180878 544.484314,312.556549 
	C556.683838,307.893677 569.183228,307.603210 581.624878,311.755310 
	C593.498779,315.717957 600.103882,324.029419 601.672791,337.162964 
	C596.142334,337.162964 590.893494,337.162964 585.268433,337.170288 
z"/>
<path fill="#042C1F" opacity="1.000000" stroke="none" 
	d="
M956.796631,338.812775 
	C953.573853,342.206024 950.597656,345.344879 947.198425,348.929871 
	C959.981262,367.595978 972.789978,386.299774 986.186523,405.862030 
	C977.614929,405.862030 969.907532,406.024384 962.219666,405.708771 
	C960.875000,405.653564 959.302246,403.801147 958.360779,402.420197 
	C949.472961,389.382721 940.699097,376.267517 931.892944,363.175415 
	C925.286743,367.636719 921.887329,373.075531 922.782532,381.432281 
	C923.625732,389.303070 922.963440,397.335144 922.963440,405.580566 
	C915.656189,405.580566 908.736023,405.580566 901.430176,405.580566 
	C901.430176,374.087128 901.430176,342.553680 901.430176,310.731812 
	C908.421875,310.731812 915.497375,310.731812 922.652954,310.731812 
	C922.652954,322.979797 922.652954,335.009979 922.652954,347.040131 
	C923.116699,347.446075 923.580444,347.851990 924.044189,348.257935 
	C924.871399,346.857300 925.481689,345.256744 926.559692,344.087372 
	C936.038269,333.806122 945.502502,323.507019 955.234497,313.468781 
	C956.829834,311.823364 959.674316,310.713318 962.008240,310.586609 
	C968.915588,310.211517 975.856323,310.452423 984.047363,310.452423 
	C974.461182,320.429749 965.752197,329.494080 956.796631,338.812775 
z"/>
<path fill="#042C1F" opacity="1.000000" stroke="none" 
	d="
M1070.271484,353.166199 
	C1064.963989,367.220001 1054.183960,372.402771 1040.465942,372.826050 
	C1032.826660,373.061707 1025.174072,372.868378 1017.151978,372.868378 
	C1017.151978,384.045776 1017.151978,394.826721 1017.151978,405.733887 
	C1009.794373,405.733887 1002.818237,405.733887 995.444824,405.733887 
	C995.444824,374.100708 995.444824,342.554077 995.444824,310.456360 
	C1004.815308,310.456360 1014.273743,310.350433 1023.728455,310.490082 
	C1031.212036,310.600555 1038.850708,310.134003 1046.141846,311.458618 
	C1066.293457,315.119629 1076.197266,332.504547 1070.271484,353.166199 
M1040.399902,329.766449 
	C1032.722534,329.766449 1025.045044,329.766449 1017.487366,329.766449 
	C1017.487366,338.377655 1017.487366,346.757294 1017.487366,355.289917 
	C1024.574707,355.289917 1031.362427,355.586792 1038.112427,355.207977 
	C1045.121094,354.814667 1049.023682,350.985046 1049.898682,344.635742 
	C1050.925415,337.185669 1048.278320,332.703552 1040.399902,329.766449 
z"/>
<path fill="#042C1F" opacity="1.000000" stroke="none" 
	d="
M847.998901,308.993469 
	C862.706482,309.292328 875.151184,313.485626 882.895081,326.299896 
	C885.738464,331.005035 887.230713,336.526703 889.660156,342.459229 
	C881.536438,342.459229 874.655579,342.459229 867.400513,342.459229 
	C867.540222,342.578247 867.166565,342.421417 867.100708,342.180450 
	C864.633301,333.153870 858.885559,327.717926 849.450928,327.264954 
	C839.686951,326.796173 831.683655,330.534454 827.566040,339.814484 
	C821.876099,352.638184 821.784729,365.673889 828.418945,378.238129 
	C832.923950,386.769836 841.650391,391.016113 850.939575,389.771606 
	C860.337952,388.512543 865.718140,382.930878 867.611267,373.773041 
	C867.673950,373.469574 867.937622,373.207672 868.409119,372.427704 
	C871.546509,372.427704 874.998474,372.427704 878.450500,372.427704 
	C881.924561,372.427704 885.398621,372.427704 888.845886,372.427704 
	C889.758789,385.588196 878.867126,401.060516 864.957703,405.320221 
	C846.940735,410.837891 829.829346,409.041687 815.771912,395.342072 
	C803.185791,383.076324 799.417786,367.558533 801.838806,350.454132 
	C804.468994,331.871216 813.916504,318.249207 831.891296,311.684052 
	C836.777161,309.899506 842.294128,309.842896 847.998901,308.993469 
z"/>
<path fill="#052D20" opacity="1.000000" stroke="none" 
	d="
M1099.091675,310.476562 
	C1103.668091,318.140808 1108.045166,325.681763 1111.926270,333.470001 
	C1114.935913,339.509491 1117.325562,345.857941 1120.371216,352.955414 
	C1121.888184,349.262787 1122.947876,346.258209 1124.325562,343.407349 
	C1129.153931,333.415894 1134.020142,323.440735 1139.072632,313.561951 
	C1139.756104,312.225616 1141.545044,310.652710 1142.886963,310.590637 
	C1149.494019,310.284882 1156.123047,310.451660 1163.621460,310.451660 
	C1158.324585,320.150787 1153.374146,329.243195 1148.397217,338.321014 
	C1143.137695,347.914398 1137.769287,357.449615 1132.649170,367.116547 
	C1131.620117,369.059326 1131.057617,371.472534 1131.022827,373.680542 
	C1130.857178,384.157562 1130.948730,394.638611 1130.948730,405.493713 
	C1123.724731,405.493713 1116.684937,405.493713 1109.053589,405.493713 
	C1109.053589,395.525940 1109.280029,385.594299 1108.930664,375.682983 
	C1108.808472,372.217346 1107.893188,368.469604 1106.272339,365.417755 
	C1096.641113,347.283142 1086.696655,329.314850 1076.403931,310.459778 
	C1084.259033,310.459778 1091.468994,310.459778 1099.091675,310.476562 
z"/>
<path fill="#062E21" opacity="1.000000" stroke="none" 
	d="
M612.998596,310.960510 
	C639.070801,310.654633 664.828857,310.654633 690.844727,310.654633 
	C690.844727,316.778839 690.844727,322.702911 690.844727,329.009399 
	C681.768066,329.009399 672.687195,329.009399 662.991089,329.009399 
	C662.991089,354.699402 662.991089,380.020966 662.991089,405.604126 
	C655.462341,405.604126 648.547180,405.604126 641.077148,405.604126 
	C641.077148,380.249451 641.077148,354.888580 641.077148,329.235840 
	C631.408081,329.235840 622.285339,329.235840 612.684448,329.235840 
	C612.684448,323.059235 612.684448,317.162811 612.998596,310.960510 
z"/>
<path fill="#FDFDFD" opacity="1.000000" stroke="none" 
	d="
M762.641602,333.366272 
	C772.718811,345.613831 773.869446,367.579224 765.200439,380.420746 
	C760.174683,387.865540 752.895264,390.709564 744.117188,389.988068 
	C735.202332,389.255371 728.733704,384.574768 725.244080,376.586823 
	C720.015991,364.619263 719.942383,352.229523 725.361633,340.340698 
	C732.173462,325.396790 749.715149,322.178650 762.641602,333.366272 
z"/>
<path fill="#FAFBFA" opacity="1.000000" stroke="none" 
	d="
M1040.804932,329.845276 
	C1048.278320,332.703552 1050.925415,337.185669 1049.898682,344.635742 
	C1049.023682,350.985046 1045.121094,354.814667 1038.112427,355.207977 
	C1031.362427,355.586792 1024.574707,355.289917 1017.487366,355.289917 
	C1017.487366,346.757294 1017.487366,338.377655 1017.487366,329.766449 
	C1025.045044,329.766449 1032.722534,329.766449 1040.804932,329.845276 
z"/>
</svg>