<?xml version="1.0" standalone="no"?>
<!DOCTYPE svg PUBLIC "-//W3C//DTD SVG 20010904//EN"
 "http://www.w3.org/TR/2001/REC-SVG-20010904/DTD/svg10.dtd">
<svg version="1.0" xmlns="http://www.w3.org/2000/svg"
 width="1280.000000pt" height="720.000000pt" viewBox="0 0 1280.000000 720.000000"
 preserveAspectRatio="xMidYMid meet">

<g transform="translate(0.000000,720.000000) scale(0.100000,-0.100000)"
fill="#000000" stroke="none">
<path d="M1884 4956 c-216 -101 -239 -401 -41 -531 97 -63 223 -67 321 -10
l43 25 252 -259 c138 -142 251 -262 251 -266 0 -3 -11 -21 -25 -39 -69 -90
-102 -227 -84 -351 9 -69 55 -183 86 -217 9 -10 12 -18 7 -18 -6 0 -197 -43
-425 -95 -227 -52 -420 -95 -426 -95 -7 0 -13 8 -13 18 0 60 -92 176 -171 218
-42 22 -169 30 -226 15 -82 -22 -181 -121 -204 -204 -19 -70 -14 -160 14 -219
111 -240 452 -243 563 -4 13 28 24 63 24 78 0 15 6 30 13 35 6 4 210 53 452
109 l440 101 42 -34 c67 -54 141 -86 246 -108 26 -5 27 -7 21 -58 -71 -628
-70 -617 -54 -618 8 -1 -10 -5 -39 -10 -67 -11 -126 -45 -174 -98 -47 -52 -63
-84 -75 -151 -35 -192 108 -363 303 -363 274 0 412 325 222 521 -49 51 -99 79
-156 88 -23 4 -41 9 -41 13 -1 3 16 155 37 338 l37 332 63 11 c208 36 371 205
407 421 l6 36 343 -117 c326 -112 342 -119 340 -141 -10 -93 -4 -160 20 -211
112 -243 454 -243 565 1 51 110 28 248 -56 334 -83 86 -188 119 -293 92 -77
-19 -117 -43 -168 -101 l-39 -44 -83 29 c-46 16 -205 71 -354 121 -148 51
-271 93 -273 95 -2 2 -9 32 -17 68 -14 69 -49 146 -87 193 -13 16 -30 38 -38
49 -13 18 -13 19 0 8 13 -10 39 26 170 231 l155 243 54 -25 c77 -35 175 -35
252 0 197 90 246 342 96 496 -61 63 -108 84 -198 90 -55 3 -91 0 -127 -12 -59
-20 -133 -81 -166 -139 -61 -105 -49 -262 26 -344 11 -12 18 -28 15 -36 -3 -7
-73 -120 -157 -250 l-152 -237 -31 26 c-153 128 -421 130 -579 4 -20 -17 -41
-30 -46 -30 -5 0 -26 19 -47 43 -20 23 -105 112 -188 197 -83 85 -178 183
-210 217 l-60 61 26 44 c50 85 54 203 10 296 -25 52 -86 110 -146 138 -73 33
-181 34 -253 0z"/>
<path d="M5522 4109 c-117 -20 -213 -93 -242 -182 -18 -56 -14 -150 8 -200 39
-87 108 -128 302 -177 68 -17 138 -37 155 -44 95 -40 101 -136 12 -183 -47
-25 -170 -24 -221 2 -35 19 -66 60 -80 108 -5 15 -19 17 -114 17 l-109 0 7
-42 c29 -182 197 -287 440 -275 163 8 270 64 325 171 25 49 29 70 29 130 -1
80 -16 125 -62 177 -44 50 -116 81 -286 125 -168 43 -206 64 -206 117 1 63 55
97 153 97 75 0 123 -25 147 -77 l15 -33 106 0 107 0 -9 43 c-22 96 -103 182
-202 212 -65 20 -205 27 -275 14z"/>
<path d="M7340 4107 c-140 -32 -264 -136 -315 -265 -104 -258 -9 -555 210
-663 145 -70 327 -64 463 16 152 89 231 257 220 468 -11 204 -121 362 -297
428 -70 26 -205 34 -281 16z m238 -200 c76 -50 122 -157 122 -282 0 -194 -95
-315 -247 -315 -152 0 -245 120 -244 315 0 147 52 253 146 297 61 29 169 22
223 -15z"/>
<path d="M8354 4105 c-287 -62 -438 -421 -299 -713 90 -190 273 -285 491 -254
51 8 107 23 136 38 95 48 182 166 195 264 l6 41 -108 -3 -107 -3 -13 -39 c-51
-148 -261 -169 -362 -37 -44 57 -65 135 -64 236 1 156 69 268 180 295 106 25
189 -9 231 -97 l25 -52 104 -1 104 0 -6 41 c-3 22 -17 64 -31 94 -79 160 -271
236 -482 190z"/>
<path d="M6120 4010 l0 -90 140 0 140 0 0 -385 0 -386 108 3 107 3 3 383 2
382 140 0 140 0 0 90 0 90 -390 0 -390 0 0 -90z"/>
<path d="M9000 3625 l0 -475 110 0 110 0 0 173 0 173 44 43 44 43 142 -211
c77 -117 147 -214 154 -217 6 -2 65 -3 129 -2 l116 3 -195 283 -194 284 180
186 180 187 -127 3 -128 3 -100 -108 c-55 -59 -133 -143 -175 -186 l-76 -79 4
186 4 186 -111 0 -111 0 0 -475z"/>
<path d="M9940 3626 l0 -476 110 0 110 0 0 165 0 165 118 0 c258 0 355 47 412
197 43 113 14 249 -70 333 -81 81 -98 85 -407 88 l-273 3 0 -475z m473 280
c48 -20 69 -50 75 -104 5 -57 -14 -103 -55 -129 -22 -14 -50 -18 -147 -18
l-121 0 -3 133 -3 132 111 0 c71 0 122 -5 143 -14z"/>
<path d="M10771 4078 c7 -13 79 -145 160 -295 l149 -272 0 -181 0 -180 110 0
110 0 0 181 0 180 149 272 c81 150 153 282 160 295 l12 22 -115 0 -115 0 -69
-137 c-38 -76 -82 -171 -97 -211 -16 -40 -31 -69 -35 -65 -4 4 -15 31 -25 58
-9 28 -51 119 -93 203 l-75 152 -119 0 -119 0 12 -22z"/>
</g>
</svg>
