<?xml version="1.0" encoding="utf-8"?>
<!-- Generator: Adobe Illustrator 19.0.0, SVG Export Plug-In . SVG Version: 6.00 Build 0)  -->
<svg version="1.1" id="Capa_1" xmlns="http://www.w3.org/2000/svg" xmlns:xlink="http://www.w3.org/1999/xlink" x="0px" y="0px"
	 viewBox="0 0 284 95.3" style="enable-background:new 0 0 284 95.3;" xml:space="preserve">
<style type="text/css">
	.st0{fill:#060709;}
	.st1{fill:#32695F;}
	.st2{display:none;fill:#FFFFFF;}
	.st3{fill:#FFFFFF;}
	.st4{fill:#4BA595;stroke:#FFFFFF;stroke-width:6;stroke-miterlimit:10;}
	.st5{fill:#FFFFFF;stroke:#4BA595;stroke-width:2;stroke-miterlimit:10;}
</style>
<g id="XMLID_25_">
	<g id="XMLID_270_">
		<path id="XMLID_285_" class="st0" d="M93.6,43.5c0-0.6-0.1-1.9-2.4-1.9c-1.6,0-2.2,1-2.2,1.7c0,1.1,1.9,1.9,3.9,2.5
			c4.3,1.2,8.9,2.5,8.9,8c0,5.6-4.7,8.9-10.4,8.9c-3.9,0-9.7-1.7-10.4-8.5h7.6c0.3,2.3,2.6,2.3,2.9,2.3c1.3,0,2.7-0.7,2.7-2
			c0-1.7-1.9-2-6.8-3.9c-3.3-1.1-6.1-3.2-6.1-6.7c0-5.3,4.6-8.6,9.9-8.6c3.4,0,9.1,1.3,9.8,8H93.6z"/>
		<path id="XMLID_283_" class="st0" d="M107.2,42.1h-3.8v-5.8h3.8v-8.5h7.6v8.5h3.7v5.8h-3.7v19.7h-7.6V42.1z"/>
		<path id="XMLID_280_" class="st0" d="M119.7,49c0-6.2,4.5-13.5,13.7-13.5s13.7,7.3,13.7,13.6c0,6.3-4.5,13.6-13.7,13.6
			S119.7,55.3,119.7,49L119.7,49z M127.3,49.1c0,3.7,2.8,6.4,6.1,6.4s6.1-2.7,6.1-6.4c0-3.7-2.8-6.4-6.1-6.4S127.3,45.3,127.3,49.1
			L127.3,49.1z"/>
		<path id="XMLID_278_" class="st0" d="M177.3,52.1c-1.4,5.8-6.5,10.5-13.4,10.5c-7.7,0-13.7-6.1-13.7-13.7
			c0-7.5,5.8-13.6,13.5-13.6c6.8,0,12.2,4.5,13.5,10.7h-7.7c-0.8-1.7-2.3-3.6-5.5-3.6c-1.8-0.1-3.3,0.6-4.4,1.8
			c-1.1,1.2-1.7,2.9-1.7,4.7c0,3.7,2.4,6.5,6.1,6.5c3.2,0,4.7-1.8,5.5-3.4H177.3z"/>
		<path id="XMLID_276_" class="st0" d="M181.1,27.8h7.6v17.7l7.2-9.2h9.1l-9.6,11.2l9.3,14.3H196l-7.3-12.3v12.3h-7.6V27.8z"/>
		<path id="XMLID_273_" class="st0" d="M208,36.3h7.2v2.8c1.7-1.9,4.2-3.7,8.1-3.7c9.1,0,12.5,8,12.5,13.9c0,7.4-5.1,13.4-12.4,13.4
			c-4.6,0-6.8-2.2-7.7-3.2v2.3v8.5H208V36.3z M228.1,49c0-3-2.2-6.5-6.4-6.5c-1.8,0-3.4,0.7-4.6,1.9c-1.1,1.1-1.8,2.8-1.8,4.6
			c0,1.8,0.7,3.4,1.8,4.6s2.8,1.9,4.6,1.9C225.7,55.6,228.1,52.3,228.1,49L228.1,49z"/>
		<path id="XMLID_271_" class="st0" d="M245.4,60.5l-9.5-24.2h8.1l5.2,14.8l4.9-14.8h8.1l-12.8,34h-8.1L245.4,60.5z"/>
	</g>
</g>
<g id="XMLID_55_">
	<g id="XMLID_22_">
		<circle id="XMLID_24_" class="st1" cx="43.1" cy="51.8" r="26.7"/>
		
			<ellipse id="XMLID_23_" transform="matrix(0.971 -0.2389 0.2389 0.971 -8.4262 10.7353)" class="st2" cx="40.1" cy="40.1" rx="25.1" ry="12.7"/>
	</g>
	<g id="XMLID_12_">
		<path id="XMLID_104_" class="st3" d="M30.8,46.6c-1.6,0.2-2.8,0.6-3.7,1.3c-0.9,0.6-1.8,1.8-2.8,3.5l-2.3-1.5
			C23.6,47,25,45,26.3,44c1.3-1,3.2-1.7,5.6-2.1l27.6-3.8l0.6,4.4l-7.9,1.1l2.7,19.7c0.4,2.9,1.4,4.2,3.1,4c0.9-0.1,2-0.8,3.1-2.1
			l1.6,1.8c-2.2,2.4-4.4,3.8-6.7,4.1c-1.9,0.3-3.4-0.2-4.5-1.3c-1.1-1.1-1.9-3.2-2.3-6.2l-2.7-19.1l-10.1,1.4l3.7,26.9l-6.6,0.9
			L33.4,72c0.6-5.3,0.4-12.3-0.9-21.1l-0.6-4.5L30.8,46.6z"/>
	</g>
	<path id="XMLID_1_" class="st4" d="M64.4,34.7c0.9,6.6-8.9,13.4-22,15.3S17.9,48,17,41.5S26,27,39.1,25.1S63.5,28.1,64.4,34.7z"/>
	<path id="XMLID_26_" class="st5" d="M50.9,31c0,6.1-5.3,11-11.7,11s-11.7-6-11.7-12.1s5.3-11,11.7-11S50.9,24.9,50.9,31z"/>
</g>
<g id="XMLID_71_">
	<g id="XMLID_81_">
		
			<ellipse id="XMLID_82_" transform="matrix(0.971 -0.2389 0.2389 0.971 -28.287 12.9005)" class="st2" cx="39.1" cy="123.1" rx="25.1" ry="12.7"/>
	</g>
</g>
<g id="XMLID_98_">
</g>
<g id="XMLID_135_">
</g>
<g id="XMLID_138_">
</g>
<g id="XMLID_145_">
</g>
<g id="XMLID_146_">
</g>
<g id="XMLID_147_">
</g>
</svg>
