<?xml version="1.0" encoding="utf-8"?>
<!-- Generator: Adobe Illustrator 19.0.0, SVG Export Plug-In . SVG Version: 6.00 Build 0)  -->
<svg version="1.1" id="Capa_1" xmlns="http://www.w3.org/2000/svg" xmlns:xlink="http://www.w3.org/1999/xlink" x="0px" y="0px"
	 viewBox="0 0 66.7 75.3" style="enable-background:new 0 0 66.7 75.3;" xml:space="preserve">
<style type="text/css">
	.st0{fill:#32695F;}
	.st1{display:none;fill:#FFFFFF;}
	.st2{fill:#FFFFFF;}
	.st3{fill:#4BA595;stroke:#FFFFFF;stroke-width:6;stroke-miterlimit:10;}
	.st4{fill:#FFFFFF;stroke:#4BA595;stroke-width:2;stroke-miterlimit:10;}
</style>
<g id="XMLID_55_">
	<g id="XMLID_22_">
		<circle id="XMLID_24_" class="st0" cx="33.8" cy="41.8" r="26.7"/>
		
			<ellipse id="XMLID_23_" transform="matrix(0.971 -0.2389 0.2389 0.971 -6.3072 8.2156)" class="st1" cx="30.7" cy="30.1" rx="25.1" ry="12.7"/>
	</g>
	<g id="XMLID_12_">
		<path id="XMLID_189_" class="st2" d="M21.4,36.6c-1.6,0.2-2.8,0.6-3.7,1.3c-0.9,0.6-1.8,1.8-2.8,3.5l-2.3-1.5
			c1.5-2.9,2.9-4.8,4.2-5.8c1.3-1,3.2-1.7,5.6-2.1l27.6-3.8l0.6,4.4l-7.9,1.1l2.7,19.7c0.4,2.9,1.4,4.2,3.1,4c0.9-0.1,2-0.8,3.1-2.1
			l1.6,1.8c-2.2,2.4-4.4,3.8-6.7,4.1c-1.9,0.3-3.4-0.2-4.5-1.3c-1.1-1.1-1.9-3.2-2.3-6.2l-2.7-19.1l-10.1,1.4l3.7,26.9l-6.6,0.9
			L24.1,62c0.6-5.3,0.4-12.3-0.9-21.1l-0.6-4.5L21.4,36.6z"/>
	</g>
	<path id="XMLID_1_" class="st3" d="M55.1,24.7c0.9,6.6-8.9,13.4-22,15.3S8.6,38,7.6,31.5s9-14.5,22.1-16.3S54.1,18.1,55.1,24.7z"/>
	<path id="XMLID_26_" class="st4" d="M41.6,21c0,6.1-5.3,11-11.7,11s-11.7-6-11.7-12.1s5.3-11,11.7-11S41.6,14.9,41.6,21z"/>
</g>
<g id="XMLID_71_">
	<g id="XMLID_81_">
		
			<ellipse id="XMLID_82_" transform="matrix(0.971 -0.2389 0.2389 0.971 -26.168 10.3808)" class="st1" cx="29.7" cy="113.1" rx="25.1" ry="12.7"/>
	</g>
</g>
<g id="XMLID_188_">
</g>
<g id="XMLID_191_">
</g>
<g id="XMLID_192_">
</g>
<g id="XMLID_193_">
</g>
<g id="XMLID_194_">
</g>
<g id="XMLID_195_">
</g>
</svg>
